<svg xmlns="http://www.w3.org/2000/svg" xmlns:xlink="http://www.w3.org/1999/xlink" width="100.0" height="100.0" viewBox="-73.433664708 -40.051741308 0.5325347159999865 0.43438521599999547" preserveAspectRatio="xMinYMin meet"><g transform="matrix(1,0,0,-1,0,-79.6690974)"><path fill-rule="evenodd" fill="#66cc99" stroke="#555555" stroke-width="0.01065069431999973" opacity="0.6" d="M -73.0818064,-40.0320178 L -73.0825359,-40.0319356 L -73.10659,-40.023901 L -73.1442278,-40.0089817 L -73.1454724,-40.0084722 L -73.4075993,-39.8818511 L -73.410775,-39.8790189 L -73.4139412,-39.871497 L -73.4114492,-39.7158156 L -73.404981,-39.6940462 L -73.4049395,-39.6939276 L -73.4021795,-39.6909947 L -73.4021044,-39.6909163 L -73.3607501,-39.656072 L -73.3600581,-39.655597 L -73.3304465,-39.6404608 L -73.3230436,-39.6374307 L -73.3226037,-39.6373398 L -73.3210373,-39.6370796 L -73.2834452,-39.6432413 L -73.2429331,-39.6499494 L -73.0229319,-39.6924461 L -72.9732102,-39.7974574 L -72.9230207,-39.9296844 L -72.9220122,-39.9348509 L -72.9208535,-39.9412673 L -73.0809706,-40.0317574 L -73.0818064,-40.0320178 z" /></g></svg>